<svg xmlns="http://www.w3.org/2000/svg" viewBox="0 0 273.82 397.82"><defs><style>.cls-1{fill:#0071bc;}.cls-2{fill:#22b573;}.cls-3,.cls-4{stroke:#000;stroke-miterlimit:10;}.cls-3{stroke-width:0.5px;}.cls-4{stroke-width:0.75px;}</style></defs><title>Logo_minimal</title><g id="Layer_2" data-name="Layer 2"><g id="Layer_2-2" data-name="Layer 2"><path class="cls-1" d="M134.34,197.29c-2.41-2.41-2.28-5.78-2-7.56a6,6,0,0,0-.63-3.89c-20.27-36.63-53.07-83.79-77.68-117.73H272.32V248.86a104.51,104.51,0,0,1-22.18,64.23Z"/><path d="M270.82,69.61V248.86a103,103,0,0,1-20.83,62l-86.16-86.16L135.4,196.23c-1.94-1.94-1.81-4.75-1.56-6.26a7.5,7.5,0,0,0-.8-4.85c-19.83-35.85-51.63-81.73-76-115.51H270.82m3-3H51.11c23.21,31.93,58.2,81.79,79.3,120a4.45,4.45,0,0,1,.47,2.91c-.34,2.08-.49,6,2.4,8.87l117,117a105.68,105.68,0,0,0,23.56-66.48V66.61Z"/><path class="cls-2" d="M47.11,334.94A104.1,104.1,0,0,1,1.5,248.78V146.21c29.29,32.76,58.36,60.95,64,66.4a3.76,3.76,0,0,0,2.63,1.06,3.8,3.8,0,0,0,1.29-.22c2.64-.95,10.49-3.69,26.28-8.54a46,46,0,0,1,13.35-2.19c10.12,0,14.82,4.48,14.86,4.52L239.1,325.1a103.79,103.79,0,0,1-12.44,10L136.91,396Z"/><path d="M3,150.13c28.41,31.53,56,58.27,61.49,63.56A5.32,5.32,0,0,0,70,214.86c2.63-1,10.44-3.67,26.21-8.51a44,44,0,0,1,12.91-2.13c9.23,0,13.48,3.78,13.81,4.09L237,325a101.77,101.77,0,0,1-11.13,8.78l-88.91,60.37L48,333.7A102.6,102.6,0,0,1,3,248.78V150.13m-3-7.86V248.78a105.7,105.7,0,0,0,46.26,87.4l90.65,61.64L227.5,336.3a104.76,104.76,0,0,0,13.74-11.16L125,206.18s-5-5-15.92-5a47,47,0,0,0-13.79,2.26C79.64,208.28,71.82,211,68.94,212a2.11,2.11,0,0,1-.78.14,2.3,2.3,0,0,1-1.59-.64C60.63,205.81,30.06,176.16,0,142.27Z"/><polygon class="cls-3" points="28.38 47.71 31.1 47.71 31.1 26.44 49.58 26.44 49.58 23.91 31.1 23.91 31.1 5.17 49.58 5.17 49.58 2.64 28.38 2.64 28.38 47.71"/><path class="cls-3" d="M62.46,24.2a1.89,1.89,0,0,0-1.3.49,1.54,1.54,0,0,0-.53,1.2,1.52,1.52,0,0,0,.53,1.19,1.94,1.94,0,0,0,2.58,0,1.56,1.56,0,0,0,.53-1.19,1.58,1.58,0,0,0-.53-1.2A1.88,1.88,0,0,0,62.46,24.2Z"/><path class="cls-3" d="M99.27.25A21.5,21.5,0,0,0,82.92,7.54a24.86,24.86,0,0,0-6.78,17.58A24.89,24.89,0,0,0,82.92,42.7a22,22,0,0,0,32.7,0,24.89,24.89,0,0,0,6.78-17.58,24.86,24.86,0,0,0-6.78-17.58A21.53,21.53,0,0,0,99.27.25Zm14.52,40.48a19.55,19.55,0,0,1-29.06,0,22.05,22.05,0,0,1-6-15.61,22.08,22.08,0,0,1,6-15.62,19.57,19.57,0,0,1,29.06,0,22.12,22.12,0,0,1,6,15.62A22.1,22.1,0,0,1,113.79,40.73Z"/><path class="cls-3" d="M137,24.2a1.89,1.89,0,0,0-1.3.49,1.55,1.55,0,0,0-.54,1.2,1.53,1.53,0,0,0,.54,1.19,1.85,1.85,0,0,0,1.3.49,1.81,1.81,0,0,0,1.27-.49,1.53,1.53,0,0,0,.54-1.19,1.55,1.55,0,0,0-.54-1.2A1.85,1.85,0,0,0,137,24.2Z"/><polygon class="cls-3" points="171.04 31.93 152.84 2.64 149.72 2.64 149.84 2.83 149.84 47.71 152.56 47.71 152.56 7.23 171.04 36.92 189.49 7.23 189.49 47.71 192.21 47.71 192.21 2.83 192.33 2.64 189.21 2.64 171.04 31.93"/><path class="cls-3" d="M206,24.2a1.89,1.89,0,0,0-1.3.49,1.55,1.55,0,0,0-.54,1.2,1.53,1.53,0,0,0,.54,1.19,1.85,1.85,0,0,0,1.3.49,1.79,1.79,0,0,0,1.27-.49,1.53,1.53,0,0,0,.54-1.19,1.55,1.55,0,0,0-.54-1.2A1.84,1.84,0,0,0,206,24.2Z"/><path class="cls-3" d="M240.81,27.77a13.74,13.74,0,0,0,4.64-10.43A13.69,13.69,0,0,0,240.81,7a16.52,16.52,0,0,0-9.42-4.31H218.67V47.71h2.72V32.08h8.24c.29,0,.56,0,.82,0l10.81,15.66h3.37l-11.18-16A15.66,15.66,0,0,0,240.81,27.77Zm-11.18,1.74h-8.24V5.2h8.24a13.14,13.14,0,0,1,9.23,3.55,11.3,11.3,0,0,1,3.83,8.59A11.34,11.34,0,0,1,238.86,26,13.1,13.1,0,0,1,229.63,29.51Z"/><path class="cls-4" d="M152.05,82.72v.82h-6.93v6h6.93v.81h-6.93v6h6.93v.82h-7.81V82.72Z"/><path class="cls-4" d="M160,89.2a6.74,6.74,0,0,1-2.64-1.41,2.93,2.93,0,0,1,0-4.34,3.52,3.52,0,0,1,4.69,0,2.56,2.56,0,0,1,.74,1.09l-.79.29a2.22,2.22,0,0,0-.57-.82A2.6,2.6,0,0,0,158,84a2.1,2.1,0,0,0-.71,1.61A2.07,2.07,0,0,0,158,87.2a6.46,6.46,0,0,0,1.83,1.12A8,8,0,0,1,163,90.07a4.09,4.09,0,0,1,0,6.09,4.65,4.65,0,0,1-3.27,1.26,4.59,4.59,0,0,1-3.27-1.27,4,4,0,0,1-1.3-2.34l.83-.28a3.29,3.29,0,0,0,1.08,2.06,4,4,0,0,0,5.32,0,3.31,3.31,0,0,0,0-5A7.16,7.16,0,0,0,160,89.2Z"/><path class="cls-4" d="M171.53,83.54V97.25h-.88V83.54h-4v-.82h8.79v.82Z"/><path class="cls-4" d="M178.37,96a.77.77,0,0,1,0,1.15.92.92,0,0,1-1.24,0,.77.77,0,0,1,0-1.15.92.92,0,0,1,1.24,0Z"/><path class="cls-4" d="M192.19,93.31l2.85-2a15.83,15.83,0,0,0,2.31-1.94,3.49,3.49,0,0,0,1.06-2.52,3.24,3.24,0,0,0-1.09-2.46,3.93,3.93,0,0,0-5.28,0A3.24,3.24,0,0,0,191,86.48l-.89-.3a4.14,4.14,0,0,1,1.31-2.38,4.9,4.9,0,0,1,6.59,0,4,4,0,0,1,1.36,3.07A4.28,4.28,0,0,1,198,90a14,14,0,0,1-2.15,1.78l-2.79,1.95a4.52,4.52,0,0,0-1.93,2.72h8.21v.82h-9.21A5.6,5.6,0,0,1,192.19,93.31Z"/><path class="cls-4" d="M213.65,92.52A4.62,4.62,0,0,1,212.08,96a5.65,5.65,0,0,1-7.58,0,4.62,4.62,0,0,1-1.57-3.52V87.7a4.64,4.64,0,0,1,1.57-3.52,5.65,5.65,0,0,1,7.58,0,4.64,4.64,0,0,1,1.57,3.52Zm-.93-4.82a3.83,3.83,0,0,0-1.3-2.91,4.7,4.7,0,0,0-6.27,0,3.87,3.87,0,0,0-1.3,2.91v4.82a3.84,3.84,0,0,0,1.3,2.91,4.7,4.7,0,0,0,6.27,0,3.8,3.8,0,0,0,1.3-2.91Z"/><path class="cls-4" d="M222.77,82.72V97.25h-.87V84.15H221l1.2-1.43Z"/><path class="cls-4" d="M238.91,91.51a5.67,5.67,0,0,1-7.27-.27,4.75,4.75,0,0,1,0-7.06,5.65,5.65,0,0,1,7.58,0,4.64,4.64,0,0,1,1.57,3.37h.06a8.8,8.8,0,0,1-1.66,5.24,52.57,52.57,0,0,1-3.87,4.43l-.26.28h-1.21l.41-.45a53,53,0,0,0,4.07-4.66A6.37,6.37,0,0,0,238.91,91.51Zm-.34-.89a3.92,3.92,0,0,0,0-5.83,4.7,4.7,0,0,0-6.27,0,3.92,3.92,0,0,0,0,5.83,4.67,4.67,0,0,0,6.27,0Z"/></g></g></svg>