<?xml version="1.0" encoding="utf-8"?>
<!-- Generator: Adobe Illustrator 24.1.0, SVG Export Plug-In . SVG Version: 6.00 Build 0)  -->
<svg version="1.1" id="Layer_1" xmlns="http://www.w3.org/2000/svg" xmlns:xlink="http://www.w3.org/1999/xlink" x="0px" y="0px"
	 viewBox="0 0 299.6 514.6" style="enable-background:new 0 0 299.6 514.6;" xml:space="preserve">
<style type="text/css">
	.st0{fill:#FFFFFF;}
	.st1{fill:#0071BC;}
	.st2{fill:#22B573;}
</style>
<g>
	<g>
		<g>
			<path class="st0" d="M296.6,78.5v273c0,37.4-18.5,72.5-49.5,93.5l-97.3,66l-97.3-66.2c-31-21-49.5-56-49.5-93.4v-273L296.6,78.5z
				"/>
		</g>
		<g>
			<path class="st0" d="M0,75.4v276c0,38.4,19,74.3,50.8,95.9l99,67.3l98.9-67.2c31.8-21.6,50.9-57.5,50.8-96v-276H0z M296.6,351.5
				c0,37.4-18.5,72.5-49.5,93.5l-97.3,66l-97.3-66.2c-31-21-49.5-56-49.5-93.4v-273l293.6,0.1V351.5z"/>
		</g>
		<g>
			<path class="st1" d="M228.2,185.5c-0.8-0.7-1.8-1.1-2.9-1.1c-1.1,0-2.1,0.4-2.9,1.1c-0.8,0.7-1.2,1.6-1.2,2.6v4.8
				c0,1,0.4,1.9,1.2,2.6c0.8,0.8,1.8,1.1,2.9,1.1c1.1,0,2.1-0.4,2.9-1.1c0.8-0.7,1.2-1.6,1.2-2.6v-4.8
				C229.4,187.1,229,186.2,228.2,185.5z M228.2,185.5c-0.8-0.7-1.8-1.1-2.9-1.1c-1.1,0-2.1,0.4-2.9,1.1c-0.8,0.7-1.2,1.6-1.2,2.6
				v4.8c0,1,0.4,1.9,1.2,2.6c0.8,0.8,1.8,1.1,2.9,1.1c1.1,0,2.1-0.4,2.9-1.1c0.8-0.7,1.2-1.6,1.2-2.6v-4.8
				C229.4,187.1,229,186.2,228.2,185.5z M228.2,185.5c-0.8-0.7-1.8-1.1-2.9-1.1c-1.1,0-2.1,0.4-2.9,1.1c-0.8,0.7-1.2,1.6-1.2,2.6
				v4.8c0,1,0.4,1.9,1.2,2.6c0.8,0.8,1.8,1.1,2.9,1.1c1.1,0,2.1-0.4,2.9-1.1c0.8-0.7,1.2-1.6,1.2-2.6v-4.8
				C229.4,187.1,229,186.2,228.2,185.5z M228.2,185.5c-0.8-0.7-1.8-1.1-2.9-1.1c-1.1,0-2.1,0.4-2.9,1.1c-0.8,0.7-1.2,1.6-1.2,2.6
				v4.8c0,1,0.4,1.9,1.2,2.6c0.8,0.8,1.8,1.1,2.9,1.1c1.1,0,2.1-0.4,2.9-1.1c0.8-0.7,1.2-1.6,1.2-2.6v-4.8
				C229.4,187.1,229,186.2,228.2,185.5z M69.9,170c24.4,33.8,56.2,79.7,76,115.5c0.8,1.5,1.1,3.2,0.8,4.9c-0.2,1.5-0.4,4.3,1.6,6.3
				l28.4,28.4l86.2,86.2c13.5-17.8,20.8-39.6,20.8-62V170H69.9z M171,184.3h-7v5.2h7v1.6h-7v5.2h7v1.5h-8.6v-15.2h8.6V184.3z
				 M182.1,196.5c-0.1,0.1-0.2,0.2-0.3,0.3c-1,0.9-2.3,1.4-3.5,1.4c-1.3,0-2.5-0.5-3.5-1.4c-0.8-0.7-1.2-1.6-1.4-2.6l0-0.3l1.6-0.5
				l0.1,0.5c0.1,0.7,0.4,1.4,1,1.8c1.4,1.2,3.4,1.2,4.8,0c1.2-1.1,1.3-3,0.2-4.2c-0.1-0.1-0.1-0.2-0.2-0.2c-0.7-0.6-1.4-1-2.2-1.3
				c-1-0.3-2-0.8-2.8-1.5c-0.6-0.6-1-1.4-1.1-2.3c-0.1-0.9,0.2-1.7,0.8-2.4c0.1-0.1,0.2-0.2,0.3-0.3c1.5-1.3,3.7-1.3,5.2,0
				c0.4,0.3,0.7,0.8,0.8,1.2l0.1,0.3l-1.5,0.5l-0.1-0.3c-0.1-0.3-0.3-0.5-0.5-0.7c-0.4-0.4-1-0.6-1.5-0.6c-0.6,0-1.1,0.2-1.5,0.6
				c-0.4,0.3-0.6,0.8-0.6,1.2c0,0.5,0.1,0.9,0.4,1.3l0.2,0.2c0.5,0.4,1.1,0.8,1.7,1c1.2,0.3,2.3,1,3.3,1.8c0.9,0.8,1.4,1.9,1.5,3.1
				C183.3,194.5,182.9,195.6,182.1,196.5z M194.4,184.3h-3.9V198h-1.6v-13.7h-4v-1.6h9.5V184.3z M197.2,197.8
				c-0.2,0.2-0.5,0.3-0.9,0.3s-0.6-0.1-0.9-0.3c-0.2-0.2-0.4-0.5-0.4-0.9c0-0.3,0.1-0.6,0.4-0.8c0.5-0.4,1.2-0.4,1.7,0l0,0
				c0.2,0.2,0.4,0.5,0.4,0.8C197.6,197.3,197.4,197.6,197.2,197.8z M216.7,196.5v1.6h-10l0.1-0.4c0.3-2,1.1-3.4,2.2-4.2
				c1.1-0.7,2-1.4,2.9-2c0.8-0.6,1.6-1.2,2.2-1.9c0.7-0.7,1-1.4,1-2.2c0-0.9-0.3-1.6-1-2.2c-0.7-0.6-1.4-0.9-2.4-0.9
				c-0.9,0-1.7,0.3-2.4,0.9c-0.6,0.5-0.9,1.1-1,1.8l0,0.5l-1.6-0.6l0-0.3c0.2-1,0.6-1.9,1.4-2.6c1-0.9,2.2-1.4,3.5-1.4
				c1.4,0,2.6,0.5,3.6,1.4c1,0.9,1.5,2,1.5,3.4c0,1.3-0.5,2.4-1.4,3.4c-0.6,0.6-1.4,1.2-2.2,1.8l-2.8,2c-0.8,0.5-1.4,1.2-1.6,2
				H216.7z M231.1,192.9c0,1.5-0.6,2.8-1.7,3.8c-1.1,1-2.5,1.6-4,1.6s-2.9-0.5-4-1.6c-1.1-1-1.7-2.3-1.7-3.8v-4.8
				c0-1.5,0.6-2.8,1.7-3.8c1.1-1,2.5-1.6,4-1.6s2.9,0.5,4,1.6c1.1,1,1.7,2.3,1.7,3.8V192.9z M244,196.5v1.6h-10l0.1-0.4
				c0.3-2,1.1-3.4,2.2-4.2c1.1-0.7,2-1.4,2.9-2c0.8-0.6,1.6-1.2,2.2-1.9c0.7-0.7,1-1.4,1-2.2c0-0.9-0.3-1.6-1-2.2
				c-0.7-0.6-1.4-0.9-2.4-0.9c-0.9,0-1.7,0.3-2.4,0.9c-0.6,0.5-0.9,1.1-1,1.8l0,0.5l-1.6-0.6l0-0.3c0.2-1,0.6-1.9,1.4-2.6
				c1-0.9,2.2-1.4,3.6-1.4c1.4,0,2.6,0.5,3.6,1.4c1,0.9,1.5,2,1.5,3.4c0,1.3-0.5,2.4-1.5,3.4c-0.6,0.6-1.4,1.2-2.2,1.8l-2.8,2
				c-0.8,0.5-1.3,1.2-1.6,2H244z M258.4,192.9c0,1.5-0.6,2.8-1.7,3.8c-1.1,1-2.5,1.6-4.1,1.6c-1.6,0-2.9-0.5-4-1.6
				c-1.1-1-1.7-2.3-1.7-3.8v-4.8c0-1.5,0.6-2.8,1.7-3.8c1.1-1,2.5-1.6,4-1.6c1.6,0,2.9,0.5,4.1,1.6c1.1,1,1.7,2.3,1.7,3.8V192.9z
				 M252.6,184.4c-1.1,0-2.1,0.4-2.9,1.1c-0.8,0.7-1.2,1.6-1.2,2.6v4.8c0,1,0.4,1.9,1.2,2.6c0.8,0.8,1.8,1.1,2.9,1.1
				c1.1,0,2.1-0.4,2.9-1.1c0.8-0.7,1.2-1.6,1.2-2.6v-4.8c0-1-0.4-1.9-1.2-2.6C254.7,184.7,253.8,184.4,252.6,184.4z M225.4,184.4
				c-1.1,0-2.1,0.4-2.9,1.1c-0.8,0.7-1.2,1.6-1.2,2.6v4.8c0,1,0.4,1.9,1.2,2.6c0.8,0.8,1.8,1.1,2.9,1.1c1.1,0,2.1-0.4,2.9-1.1
				c0.8-0.7,1.2-1.6,1.2-2.6v-4.8c0-1-0.4-1.9-1.2-2.6C227.4,184.7,226.5,184.4,225.4,184.4z M228.2,185.5c-0.8-0.7-1.8-1.1-2.9-1.1
				c-1.1,0-2.1,0.4-2.9,1.1c-0.8,0.7-1.2,1.6-1.2,2.6v4.8c0,1,0.4,1.9,1.2,2.6c0.8,0.8,1.8,1.1,2.9,1.1c1.1,0,2.1-0.4,2.9-1.1
				c0.8-0.7,1.2-1.6,1.2-2.6v-4.8C229.4,187.1,229,186.2,228.2,185.5z M228.2,185.5c-0.8-0.7-1.8-1.1-2.9-1.1
				c-1.1,0-2.1,0.4-2.9,1.1c-0.8,0.7-1.2,1.6-1.2,2.6v4.8c0,1,0.4,1.9,1.2,2.6c0.8,0.8,1.8,1.1,2.9,1.1c1.1,0,2.1-0.4,2.9-1.1
				c0.8-0.7,1.2-1.6,1.2-2.6v-4.8C229.4,187.1,229,186.2,228.2,185.5z"/>
			<path d="M235.9,196.5h8.1v1.6h-10l0.1-0.4c0.3-2,1.1-3.4,2.2-4.2c1.1-0.7,2-1.4,2.9-2c0.8-0.6,1.6-1.2,2.2-1.9
				c0.7-0.7,1-1.4,1-2.2c0-0.9-0.3-1.6-1-2.2c-0.7-0.6-1.4-0.9-2.4-0.9c-0.9,0-1.7,0.3-2.4,0.9c-0.6,0.5-0.9,1.1-1,1.8l0,0.5
				l-1.6-0.6l0-0.3c0.2-1,0.6-1.9,1.4-2.6c1-0.9,2.2-1.4,3.6-1.4c1.4,0,2.6,0.5,3.6,1.4c1,0.9,1.5,2,1.5,3.4c0,1.3-0.5,2.4-1.5,3.4
				c-0.6,0.6-1.4,1.2-2.2,1.8l-2.8,2C236.8,195,236.2,195.7,235.9,196.5z"/>
		</g>
		<g>
			<path d="M286.7,167H64c23.2,31.9,58.2,81.8,79.3,120c0.5,0.9,0.7,1.9,0.5,2.9c-0.4,2.1-0.5,6,2.4,8.9c1.8,1.8,56.5,56.5,117,117
				c15.2-18.8,23.5-42.3,23.6-66.5L286.7,167L286.7,167z M283.7,349.2c0,22.4-7.3,44.1-20.8,62L176.7,325l-28.4-28.4
				c-1.9-2-1.8-4.8-1.6-6.3c0.3-1.7,0-3.4-0.8-4.9c-19.8-35.9-51.6-81.7-76-115.5h213.8V349.2z"/>
		</g>
		<g>
			<path class="st2" d="M249.8,425.4c-3.5,3.2-7.2,6.1-11.1,8.8l-88.9,60.4l-89-60.5c-28.1-19.1-45-50.9-45-84.9v-98.6h0
				c28.4,31.5,56,58.3,61.5,63.6c1.5,1.4,3.6,1.8,5.5,1.2c2.6-0.9,10.5-3.7,26.2-8.5c4.2-1.3,8.6-2.1,13-2.1
				c9.2,0,13.5,3.8,13.8,4.1L249.8,425.4z"/>
		</g>
		<g>
			<path d="M137.8,306.5c0,0-5-5-15.9-5c-4.7,0.1-9.3,0.8-13.8,2.3c-15.7,4.8-23.5,7.5-26.3,8.6c-0.2,0.1-0.5,0.1-0.8,0.1
				c-0.6,0-1.2-0.2-1.6-0.6c-6-5.7-36.5-35.4-66.6-69.3v106.6c0,35,17.3,67.7,46.3,87.4l90.6,61.6l90.6-61.5
				c4.9-3.3,9.5-7.1,13.7-11.2L137.8,306.5z M60.8,434.1c-28.1-19.1-45-50.9-45-84.9v-98.6h0c28.4,31.5,56,58.3,61.5,63.6
				c1.5,1.4,3.6,1.8,5.5,1.2c2.6-0.9,10.5-3.7,26.2-8.5c4.2-1.3,8.6-2.1,13-2.1c9.2,0,13.5,3.8,13.8,4.1l114,116.7
				c-3.5,3.2-7.2,6.1-11.1,8.8l-88.9,60.4L60.8,434.1z"/>
		</g>
		<g>
			<g>
				<polygon points="44.2,105.8 44.2,124 62.7,124 62.7,127.1 44.2,127.1 44.2,148.3 41,148.3 41,102.8 62.7,102.8 62.7,105.8 				
					"/>
			</g>
		</g>
		<g>
			<g>
				<path d="M76.8,127.7c-0.4,0.4-0.9,0.5-1.4,0.5h-0.1c-0.5,0-1-0.2-1.4-0.5c0,0-0.1-0.1-0.2-0.2c-0.7-0.8-0.6-1.9,0.2-2.6
					c0.4-0.4,0.9-0.6,1.5-0.5c0.5,0,1,0.2,1.4,0.5c0,0,0.1,0.1,0.2,0.2C77.6,125.8,77.5,127,76.8,127.7z"/>
			</g>
		</g>
		<g>
			<g>
				<path d="M128.7,107.8c-4.1-4.7-10.1-7.4-16.3-7.4h-0.4c-6.2,0-12.2,2.7-16.3,7.4c-9.2,10.1-9.2,25.4,0,35.5
					c4.4,4.9,10.5,7.4,16.6,7.4c5.3,0,10.6-1.9,14.9-5.7c0.6-0.5,1.1-1.1,1.7-1.7C137.8,133.1,137.8,117.9,128.7,107.8z
					 M132.4,125.5c0,5.5-2,11-6,15.5c-7.1,7.9-19.4,8.5-27.3,1.4c-0.5-0.4-1-0.9-1.4-1.4c-8-8.8-8-22.1,0-30.9
					c3.4-3.8,8.2-6.1,13.3-6.4c0.3,0,0.7,0,1,0c4.8,0,9.3,1.7,12.9,5c0.5,0.5,1,0.9,1.4,1.4C130.5,114.5,132.4,120,132.4,125.5z"/>
			</g>
		</g>
		<g>
			<g>
				<path d="M151.3,127.7c-0.4,0.4-0.9,0.5-1.5,0.5c-0.5,0-1-0.2-1.4-0.5c-0.1,0-0.1-0.1-0.2-0.2c-0.7-0.8-0.6-1.9,0.2-2.6
					c0.4-0.4,0.9-0.6,1.5-0.5c0.5,0,1,0.2,1.5,0.5c0,0,0.1,0.1,0.2,0.2C152.2,125.8,152.1,127,151.3,127.7z"/>
			</g>
		</g>
		<g>
			<g>
				<polygon points="205.6,102.8 205.3,103.3 205.3,148.3 202.1,148.3 202.1,108.5 183.9,137.8 183.7,137.4 165.7,108.5 
					165.7,148.3 162.5,148.3 162.5,103.3 162.1,102.8 165.8,102.8 165.9,102.9 183.9,131.8 201.9,102.8 				"/>
			</g>
		</g>
		<g>
			<g>
				<path d="M220.3,127.7c-0.4,0.4-0.9,0.5-1.4,0.5h-0.1c-0.5,0-1-0.2-1.4-0.5c0,0-0.1-0.1-0.2-0.2c-0.3-0.4-0.5-0.8-0.5-1.3
					c0-0.5,0.2-0.9,0.6-1.3c0.4-0.4,0.9-0.6,1.5-0.5c0.5,0,1,0.2,1.4,0.5c0,0,0.1,0.1,0.2,0.2C221.1,125.8,221,127,220.3,127.7z"/>
			</g>
		</g>
		<g>
			<g>
				<path d="M258.5,118.5c0.2-3.8-1.1-7.5-3.6-10.3c-0.3-0.4-0.7-0.7-1.1-1.1c-2.6-2.4-6-4-9.6-4.4h-13v45.6h3.2v-15.6h8.7
					l10.7,15.5l0.1,0.1h4l-11.2-16.1c2.7-0.7,5.1-2,7.1-4C256.7,125.8,258.3,122.3,258.5,118.5z M234.5,105.8h8.3
					c3.3,0,6.4,1.2,8.8,3.5c4.6,4.1,5,11.3,0.9,15.9c-0.3,0.3-0.6,0.6-0.9,0.9c-2.5,2.3-5.7,3.6-9,3.5h-8V105.8z"/>
			</g>
		</g>
		<g>
			<polygon points="164,184.3 164,189.5 171,189.5 171,191.1 164,191.1 164,196.4 171,196.4 171,197.9 162.4,197.9 162.4,182.7 
				171,182.7 171,184.3 			"/>
		</g>
		<g>
			<path d="M183.3,193.3c0.1,1.2-0.4,2.3-1.2,3.2c-0.1,0.1-0.2,0.2-0.3,0.3c-1,0.9-2.3,1.4-3.5,1.4c-1.3,0-2.5-0.5-3.5-1.4
				c-0.8-0.7-1.2-1.6-1.4-2.6l0-0.3l1.6-0.5l0.1,0.5c0.1,0.7,0.4,1.4,1,1.8c1.4,1.2,3.4,1.2,4.8,0c1.2-1.1,1.3-3,0.2-4.2
				c-0.1-0.1-0.1-0.2-0.2-0.2c-0.7-0.6-1.4-1-2.2-1.3c-1-0.3-2-0.8-2.8-1.5c-0.6-0.6-1-1.4-1.1-2.3c-0.1-0.9,0.2-1.7,0.8-2.4
				c0.1-0.1,0.2-0.2,0.3-0.3c1.5-1.3,3.7-1.3,5.2,0c0.4,0.3,0.7,0.8,0.8,1.2l0.1,0.3l-1.5,0.5l-0.1-0.3c-0.1-0.3-0.3-0.5-0.5-0.7
				c-0.4-0.4-1-0.6-1.5-0.6c-0.6,0-1.1,0.2-1.5,0.6c-0.4,0.3-0.6,0.8-0.6,1.2c0,0.5,0.1,0.9,0.4,1.3l0.2,0.2c0.5,0.4,1.1,0.8,1.7,1
				c1.2,0.3,2.3,1,3.3,1.8C182.7,191,183.2,192.1,183.3,193.3z"/>
		</g>
		<g>
			<polygon points="194.4,182.7 194.4,184.3 190.5,184.3 190.5,198 188.8,198 188.8,184.3 184.8,184.3 184.8,182.7 			"/>
		</g>
		<g>
			<path d="M197.6,196.9c0,0.3-0.1,0.7-0.4,0.9c-0.2,0.2-0.5,0.3-0.9,0.3s-0.6-0.1-0.9-0.3c-0.2-0.2-0.4-0.5-0.4-0.9
				c0-0.3,0.1-0.6,0.4-0.8c0.5-0.4,1.2-0.4,1.7,0l0,0C197.4,196.3,197.6,196.6,197.6,196.9z"/>
		</g>
		<g>
			<g>
				<path d="M208.6,196.5h8.1v1.6h-10l0.1-0.4c0.3-2,1.1-3.4,2.2-4.2c1.1-0.7,2-1.4,2.9-2c0.8-0.6,1.6-1.2,2.2-1.9
					c0.7-0.7,1-1.4,1-2.2c0-0.9-0.3-1.6-1-2.2c-0.7-0.6-1.4-0.9-2.4-0.9c-0.9,0-1.7,0.3-2.4,0.9c-0.6,0.5-0.9,1.1-1,1.8l0,0.5
					l-1.6-0.6l0-0.3c0.2-1,0.6-1.9,1.4-2.6c1-0.9,2.2-1.4,3.5-1.4c1.4,0,2.6,0.5,3.6,1.4c1,0.9,1.5,2,1.5,3.4c0,1.3-0.5,2.4-1.4,3.4
					c-0.6,0.6-1.4,1.2-2.2,1.8l-2.8,2C209.5,195,208.9,195.7,208.6,196.5z"/>
			</g>
			<g>
				<path d="M229.4,184.3c-1.1-1-2.5-1.6-4-1.6s-2.9,0.5-4,1.6c-1.1,1-1.7,2.3-1.7,3.8v4.8c0,1.5,0.6,2.8,1.7,3.8
					c1.1,1,2.5,1.6,4,1.6s2.9-0.5,4-1.6c1.1-1,1.7-2.3,1.7-3.8v-4.8C231.1,186.6,230.5,185.4,229.4,184.3z M225.4,196.7
					c-1.1,0-2.1-0.4-2.9-1.1c-0.8-0.7-1.2-1.6-1.2-2.6v-4.8c0-1,0.4-1.9,1.2-2.6c0.8-0.7,1.8-1.1,2.9-1.1c1.1,0,2.1,0.4,2.9,1.1
					c0.8,0.7,1.2,1.6,1.2,2.6v4.8c0,1-0.4,1.9-1.2,2.6C227.4,196.3,226.5,196.7,225.4,196.7z"/>
			</g>
			<g>
				<path d="M256.7,184.3c-1.1-1-2.5-1.6-4.1-1.6c-1.6,0-2.9,0.5-4,1.6c-1.1,1-1.7,2.3-1.7,3.8v4.8c0,1.5,0.6,2.8,1.7,3.8
					c1.1,1,2.5,1.6,4,1.6c1.6,0,2.9-0.5,4.1-1.6c1.1-1,1.7-2.3,1.7-3.8v-4.8C258.4,186.6,257.8,185.4,256.7,184.3z M256.7,188.1v4.8
					c0,1-0.4,1.9-1.2,2.6c-0.8,0.8-1.8,1.1-2.9,1.1c-1.1,0-2.1-0.4-2.9-1.1c-0.8-0.7-1.2-1.6-1.2-2.6v-4.8c0-1,0.4-1.9,1.2-2.6
					c0.8-0.7,1.8-1.1,2.9-1.1c1.1,0,2.1,0.4,2.9,1.1C256.3,186.2,256.7,187.1,256.7,188.1z"/>
			</g>
		</g>
	</g>
	<g>
		<g>
			<polygon class="st0" points="77.1,2.8 77.1,9.9 84.8,9.9 84.8,11.7 77.1,11.7 77.1,20.7 75.2,20.7 75.2,1 84.8,1 84.8,2.8 			"/>
		</g>
		<g>
			<path class="st0" d="M99.2,12.2c1.3-1.2,2.1-2.9,2.1-4.7c0-1.8-0.8-3.5-2.1-4.6C98.1,1.8,96.6,1.2,95,1h-5.7v19.7h1.9v-6.6h3.2
				l4.5,6.6l2.3,0l-4.8-6.9C97.5,13.5,98.5,12.9,99.2,12.2z M91.2,2.8h3.1c1.3,0,2.6,0.5,3.6,1.4c1,0.8,1.5,2.1,1.5,3.3
				c0,1.3-0.5,2.5-1.5,3.3c-1,0.9-2.2,1.4-3.6,1.4h-3.1V2.8z"/>
		</g>
		<g>
			<rect x="105.2" y="1" class="st0" width="1.9" height="19.7"/>
		</g>
		<g>
			<polygon class="st0" points="114.1,2.8 114.1,9.9 123.1,9.9 123.1,11.7 114.1,11.7 114.1,18.8 123.1,18.8 123.1,20.7 112.2,20.7 
				112.2,1 123.1,1 123.1,2.8 			"/>
		</g>
		<g>
			<polygon class="st0" points="141.2,1 141.2,20.7 139.5,20.7 129.6,4.6 129.6,20.7 127.7,20.7 127.7,1 129.5,1 139.4,16.9 
				139.4,1 			"/>
		</g>
		<g>
			<path class="st0" d="M155.7,3.7c-1.9-1.8-4.6-2.7-8.1-2.7h-1.5v19.6h1.6c3.4,0,6.1-0.9,8-2.7c2.1-1.8,3.2-4.4,3.2-7.1
				C158.9,8.1,157.8,5.5,155.7,3.7z M157,10.8c0,2.2-0.9,4.3-2.6,5.8c-1.5,1.4-3.6,2.1-6.4,2.2V2.9c2.8,0,4.9,0.8,6.4,2.2
				C156.1,6.5,157,8.6,157,10.8z"/>
		</g>
		<g>
			<path class="st0" d="M174.6,15.2c-0.1,1.5-0.8,2.9-1.9,3.9c-1.3,1.2-2.9,1.8-4.5,1.8c-1.6,0-3.2-0.6-4.5-1.8
				c-0.9-0.8-1.6-2-1.8-3.3l0-0.3l1.8-0.6l0,0.5c0.1,0.9,0.6,1.8,1.3,2.4c1.8,1.7,4.6,1.7,6.4,0c0.1-0.1,0.2-0.2,0.3-0.3
				c1.5-1.6,1.3-4.1-0.3-5.6c-0.9-0.8-1.9-1.4-3-1.8c-1.3-0.4-2.5-1-3.5-1.9c-0.9-0.8-1.4-2-1.4-3.2c0-1.2,0.5-2.3,1.4-3.1
				c0.9-0.8,2-1.3,3.2-1.3h0c1.2,0,2.3,0.5,3.2,1.3c0.5,0.4,0.9,0.9,1.1,1.5l0.1,0.3l-1.7,0.6l-0.1-0.3c-0.1-0.4-0.4-0.7-0.6-0.9
				c-0.5-0.5-1.2-0.7-2-0.7c-0.8,0-1.5,0.3-2,0.8c-0.5,0.5-0.8,1.1-0.8,1.8c0,0.7,0.3,1.3,0.8,1.8c0.7,0.6,1.4,1,2.3,1.4
				c1.6,0.5,3,1.3,4.2,2.4c0.2,0.1,0.3,0.3,0.5,0.5C174.1,12.3,174.6,13.7,174.6,15.2z"/>
		</g>
		<g>
			<path class="st0" d="M208.6,3.2c-1.7-1.9-4.1-3-6.6-3.2c-2.6-0.1-5,0.7-6.9,2.5c-0.2,0.2-0.5,0.4-0.7,0.7c-2,2.1-3,4.8-2.9,7.6
				c-0.1,2.8,1,5.6,2.9,7.6c1.8,2,4.3,3.1,7,3.1h0.3c2.7,0,5.2-1.1,7-3.1c2-2.1,3-4.8,2.9-7.6C211.6,8,210.5,5.3,208.6,3.2z
				 M209.7,10.8c0,2.3-0.8,4.6-2.4,6.3c-2.9,3.2-7.8,3.5-11,0.6c-0.2-0.2-0.4-0.4-0.6-0.6c-1.6-1.7-2.5-3.9-2.4-6.3
				c-0.1-2.3,0.8-4.5,2.4-6.2l0.1-0.1v0c1.4-1.5,3.3-2.4,5.3-2.5c2.1-0.1,4.1,0.6,5.6,2c0.2,0.2,0.4,0.4,0.6,0.6
				C208.9,6.2,209.7,8.4,209.7,10.8z"/>
		</g>
		<g>
			<polygon class="st0" points="216.6,2.8 216.6,9.9 224.4,9.9 224.4,11.7 216.6,11.7 216.6,20.7 214.8,20.7 214.8,1 224.4,1 
				224.4,2.8 			"/>
		</g>
		<g>
			<polygon class="st0" points="22,35 21.5,35.6 21.5,54.7 19.6,54.7 19.6,38.6 12.3,50.5 4.9,38.6 4.9,54.7 3,54.7 3,35.6 2.7,35 
				4.8,35 12.3,47 19.7,35 			"/>
		</g>
		<g>
			<polygon class="st0" points="28.3,36.8 28.3,43.9 37.3,43.9 37.3,45.7 28.3,45.7 28.3,52.8 37.3,52.8 37.3,54.7 26.4,54.7 
				26.4,35 37.3,35 37.3,36.8 			"/>
		</g>
		<g>
			<path class="st0" d="M49,47.8c1-0.3,2-0.9,2.7-1.6c1.3-1.2,2.1-2.9,2.1-4.7c0-1.8-0.7-3.5-2-4.6c-1.2-1.1-2.7-1.8-4.3-1.9h-5.7
				v19.7h1.9v-6.6H47l4.5,6.6h2.3L49,47.8z M43.8,36.8h3.1c1.3,0,2.6,0.5,3.6,1.4c1.8,1.6,2,4.5,0.3,6.3c-0.1,0.1-0.2,0.2-0.4,0.4
				c-1,0.9-2.3,1.4-3.6,1.4h-3.1V36.8z"/>
		</g>
		<g>
			<path class="st0" d="M74.1,50.8l1.5,1.2l-0.4,0.3c-2.1,1.7-4.7,2.6-7.2,2.6c-2.7,0-5.4-1-7.6-3c-0.2-0.2-0.5-0.5-0.7-0.7
				c-1.7-1.9-2.6-4.3-2.4-6.9c0.1-2.6,1.2-4.9,3.2-6.6c4.2-3.8,10.5-3.9,14.8-0.3l0.4,0.3l-1.5,1.2l-0.2-0.2
				c-1.7-1.4-3.7-2.1-5.9-2.1h0c-2.3,0-4.6,0.8-6.3,2.4c-0.2,0.2-0.4,0.4-0.6,0.6c-1.4,1.5-2.1,3.5-2,5.6c0.1,2.1,1,4,2.6,5.4
				c3.4,3.1,8.6,3.3,12.2,0.3L74.1,50.8z"/>
		</g>
		<g>
			<polygon class="st0" points="94.4,35 87.1,46.7 87.1,54.7 85.2,54.7 85.2,46.7 78,35 80.2,35 86.2,44.7 92.2,35 			"/>
		</g>
		<g>
			<polygon class="st0" points="109.2,35 109.2,54.7 107.3,54.7 107.3,46.2 99.6,46.2 99.6,54.7 97.7,54.7 97.7,35 99.6,35 
				99.6,44.4 107.3,44.4 107.3,35 			"/>
		</g>
		<g>
			<path class="st0" d="M128.1,35v14c-0.2,1.5-1,2.9-2.1,3.9c-1.4,1.3-3.2,1.9-4.9,1.9c-1.8,0-3.5-0.6-4.9-1.9
				c-1.3-1.2-2.1-2.9-2.1-4.6V35h1.9v13.3c0,1.3,0.5,2.5,1.5,3.3c2.1,1.9,5.2,1.9,7.2,0c1-0.8,1.5-2,1.5-3.3V35H128.1z"/>
		</g>
		<g>
			<path class="st0" d="M140.2,47.8c1-0.3,2-0.9,2.7-1.6c1.3-1.2,2.1-2.9,2.1-4.7c0-1.8-0.7-3.5-2-4.6c-1.1-1.1-2.6-1.7-4.2-1.9H133
				v19.7h1.9v-6.6h3.2l4.5,6.6h2.3L140.2,47.8z M134.9,36.8h3.1c1.3,0,2.6,0.5,3.6,1.4c1.8,1.7,2,4.5,0.3,6.3
				c-0.1,0.1-0.2,0.2-0.3,0.3c-1,0.9-2.2,1.4-3.6,1.4h-3.1V36.8z"/>
		</g>
		<g>
			<path class="st0" d="M160,49.2c-0.1,1.5-0.8,2.9-1.9,3.9c-1.3,1.2-2.9,1.8-4.5,1.8s-3.2-0.6-4.5-1.8c-1-0.8-1.6-2-1.8-3.3l0-0.3
				l1.8-0.6l0,0.5c0.1,0.9,0.6,1.8,1.3,2.4c1.8,1.6,4.6,1.6,6.4,0c0.1-0.1,0.2-0.2,0.3-0.3c1.5-1.6,1.3-4.1-0.3-5.6
				c-0.9-0.8-1.9-1.4-3-1.8c-1.3-0.3-2.5-1-3.5-1.9c-0.1-0.1-0.2-0.2-0.3-0.3c-0.7-0.8-1.1-1.9-1-3c0.1-1.1,0.5-2.1,1.4-2.9
				c0.9-0.8,2-1.3,3.2-1.3c1.2,0,2.4,0.4,3.3,1.3c0.5,0.4,0.9,0.9,1.1,1.5l0.1,0.4l-1.7,0.6l-0.1-0.3c-0.1-0.3-0.4-0.7-0.7-0.9
				c-0.5-0.5-1.2-0.8-2-0.8c-0.7,0-1.5,0.3-2,0.8c-0.5,0.5-0.8,1.1-0.8,1.8s0.3,1.3,0.8,1.8c0.7,0.6,1.4,1,2.3,1.4
				c1.6,0.4,3,1.2,4.2,2.3c0.2,0.1,0.3,0.3,0.5,0.5C159.6,46.2,160.1,47.7,160,49.2z"/>
		</g>
		<g>
			<polygon class="st0" points="174.5,35 174.5,36.8 169.4,36.8 169.4,54.7 167.5,54.7 167.5,36.8 162.3,36.8 162.3,35 			"/>
		</g>
		<g>
			<path class="st0" d="M199.9,46.2c1.3-1.2,2.1-2.9,2.1-4.7c0-1.8-0.7-3.5-2.1-4.6c-1.1-1.1-2.6-1.7-4.2-1.9H190v19.7h1.9v-6.6h3.2
				l4.5,6.6h2.3l-4.8-6.9C198.2,47.5,199.2,46.9,199.9,46.2z M191.9,36.8h3.1c1.4,0,2.6,0.5,3.6,1.4c0.9,0.8,1.4,1.9,1.5,3.1
				c0.1,1.2-0.3,2.3-1.1,3.2c-0.1,0.1-0.2,0.2-0.4,0.4c-1,0.9-2.2,1.4-3.6,1.4h-3.1V36.8z"/>
		</g>
		<g>
			<path class="st0" d="M223.1,37.1c-1.8-2-4.4-3.2-7.1-3.1c-2.7-0.1-5.3,1.1-7.1,3.1c-3.9,4.3-3.9,10.9,0,15.2
				c1.9,2.1,4.5,3.2,7.1,3.2c2.3,0,4.6-0.8,6.4-2.5c0.2-0.2,0.5-0.5,0.7-0.7C227,48,227,41.5,223.1,37.1z M210.8,51.7
				c-0.2-0.2-0.4-0.4-0.6-0.6c-3.2-3.6-3.2-9,0-12.6c1.4-1.5,3.3-2.5,5.4-2.6c0.1,0,0.3,0,0.4,0c1.9,0,3.8,0.7,5.2,2
				c0.2,0.2,0.4,0.4,0.6,0.6c1.6,1.8,2.4,4,2.4,6.3c0,2.2-0.8,4.5-2.4,6.3c-1.4,1.5-3.3,2.5-5.4,2.6
				C214.3,53.8,212.3,53.1,210.8,51.7z"/>
		</g>
		<g>
			<path class="st0" d="M248.5,35v14.9c0,1.3-0.6,2.6-1.6,3.4c-1.1,1-2.4,1.5-3.8,1.5s-2.7-0.5-3.8-1.5c-0.1-0.1-0.2-0.1-0.2-0.2
				c-0.1,0.1-0.2,0.1-0.2,0.2c-1,1-2.4,1.5-3.8,1.5c-1.4,0-2.8-0.5-3.8-1.5c-1-0.9-1.6-2.1-1.6-3.4V35h1.9v14.8c0,0.9,0.3,1.7,1,2.2
				c1.4,1.3,3.5,1.3,5,0c0.2-0.2,0.4-0.5,0.6-0.7V35h1.9v16.3c0.6,1.1,1.8,1.7,3,1.7c0.9,0,1.8-0.3,2.5-0.9c0.7-0.6,1-1.4,1-2.2V35
				H248.5z"/>
		</g>
		<g>
			<rect x="253.3" y="35" class="st0" width="1.9" height="19.7"/>
		</g>
		<g>
			<polygon class="st0" points="273.9,35 273.9,54.7 272.2,54.7 262.2,38.6 262.2,54.7 260.3,54.7 260.3,35 262.2,35 272,50.9 
				272,35 			"/>
		</g>
		<g>
			<path class="st0" d="M294.6,45.4h1.9v6.7l-0.1,0.1c-2,1.8-4.5,2.7-7.2,2.7H289c-2.8,0-5.4-1-7.4-2.9c-0.2-0.2-0.5-0.5-0.7-0.7
				c-1.7-1.9-2.6-4.3-2.4-6.9c0.1-2.6,1.2-4.9,3.1-6.6c4.2-3.7,10.5-3.9,14.9-0.3l0.3,0.3l-1.5,1.2l-0.2-0.2
				c-3.6-2.9-8.7-2.8-12.2,0.3c-0.2,0.2-0.4,0.4-0.6,0.6c-2.9,3.2-2.6,8.1,0.6,11c1.7,1.6,3.9,2.5,6.3,2.4c1.9,0,3.8-0.6,5.4-1.7
				V45.4z"/>
		</g>
	</g>
</g>
</svg>
