<svg viewBox="0 50 299.6 514.6"><path d="M228.2 185.5c-.8-.7-1.8-1.1-2.9-1.1-1.1 0-2.1.4-2.9 1.1-.8.7-1.2 1.6-1.2 2.6v4.8c0 1 .4 1.9 1.2 2.6.8.8 1.8 1.1 2.9 1.1 1.1 0 2.1-.4 2.9-1.1.8-.7 1.2-1.6 1.2-2.6v-4.8c0-1-.4-1.9-1.2-2.6zm0 0c-.8-.7-1.8-1.1-2.9-1.1-1.1 0-2.1.4-2.9 1.1-.8.7-1.2 1.6-1.2 2.6v4.8c0 1 .4 1.9 1.2 2.6.8.8 1.8 1.1 2.9 1.1 1.1 0 2.1-.4 2.9-1.1.8-.7 1.2-1.6 1.2-2.6v-4.8c0-1-.4-1.9-1.2-2.6zm0 0c-.8-.7-1.8-1.1-2.9-1.1-1.1 0-2.1.4-2.9 1.1-.8.7-1.2 1.6-1.2 2.6v4.8c0 1 .4 1.9 1.2 2.6.8.8 1.8 1.1 2.9 1.1 1.1 0 2.1-.4 2.9-1.1.8-.7 1.2-1.6 1.2-2.6v-4.8c0-1-.4-1.9-1.2-2.6zm0 0c-.8-.7-1.8-1.1-2.9-1.1-1.1 0-2.1.4-2.9 1.1-.8.7-1.2 1.6-1.2 2.6v4.8c0 1 .4 1.9 1.2 2.6.8.8 1.8 1.1 2.9 1.1 1.1 0 2.1-.4 2.9-1.1.8-.7 1.2-1.6 1.2-2.6v-4.8c0-1-.4-1.9-1.2-2.6zM69.9 170c24.4 33.8 56.2 79.7 76 115.5.8 1.5 1.1 3.2.8 4.9-.2 1.5-.4 4.3 1.6 6.3l28.4 28.4 86.2 86.2c13.5-17.8 20.8-39.6 20.8-62V170H69.9zM171 184.3h-7v5.2h7v1.6h-7v5.2h7v1.5h-8.6v-15.2h8.6v1.7zm11.1 12.2l-.3.3c-1 .9-2.3 1.4-3.5 1.4-1.3 0-2.5-.5-3.5-1.4-.8-.7-1.2-1.6-1.4-2.6v-.3l1.6-.5.1.5c.1.7.4 1.4 1 1.8 1.4 1.2 3.4 1.2 4.8 0 1.2-1.1 1.3-3 .2-4.2-.1-.1-.1-.2-.2-.2-.7-.6-1.4-1-2.2-1.3-1-.3-2-.8-2.8-1.5-.6-.6-1-1.4-1.1-2.3-.1-.9.2-1.7.8-2.4l.3-.3c1.5-1.3 3.7-1.3 5.2 0 .4.3.7.8.8 1.2l.1.3-1.5.5-.1-.3c-.1-.3-.3-.5-.5-.7-.4-.4-1-.6-1.5-.6-.6 0-1.1.2-1.5.6-.4.3-.6.8-.6 1.2 0 .5.1.9.4 1.3l.2.2c.5.4 1.1.8 1.7 1 1.2.3 2.3 1 3.3 1.8.9.8 1.4 1.9 1.5 3.1-.1 1.4-.5 2.5-1.3 3.4zm12.3-12.2h-3.9V198h-1.6v-13.7h-4v-1.6h9.5v1.6zm2.8 13.5c-.2.2-.5.3-.9.3s-.6-.1-.9-.3c-.2-.2-.4-.5-.4-.9 0-.3.1-.6.4-.8.5-.4 1.2-.4 1.7 0 .2.2.4.5.4.8.1.4-.1.7-.3.9zm19.5-1.3v1.6h-10l.1-.4c.3-2 1.1-3.4 2.2-4.2 1.1-.7 2-1.4 2.9-2 .8-.6 1.6-1.2 2.2-1.9.7-.7 1-1.4 1-2.2 0-.9-.3-1.6-1-2.2-.7-.6-1.4-.9-2.4-.9-.9 0-1.7.3-2.4.9-.6.5-.9 1.1-1 1.8v.5l-1.6-.6v-.3c.2-1 .6-1.9 1.4-2.6 1-.9 2.2-1.4 3.5-1.4 1.4 0 2.6.5 3.6 1.4 1 .9 1.5 2 1.5 3.4 0 1.3-.5 2.4-1.4 3.4-.6.6-1.4 1.2-2.2 1.8l-2.8 2c-.8.5-1.4 1.2-1.6 2h8zm14.4-3.6c0 1.5-.6 2.8-1.7 3.8s-2.5 1.6-4 1.6-2.9-.5-4-1.6c-1.1-1-1.7-2.3-1.7-3.8v-4.8c0-1.5.6-2.8 1.7-3.8s2.5-1.6 4-1.6 2.9.5 4 1.6c1.1 1 1.7 2.3 1.7 3.8v4.8zm12.9 3.6v1.6h-10l.1-.4c.3-2 1.1-3.4 2.2-4.2 1.1-.7 2-1.4 2.9-2 .8-.6 1.6-1.2 2.2-1.9.7-.7 1-1.4 1-2.2 0-.9-.3-1.6-1-2.2-.7-.6-1.4-.9-2.4-.9-.9 0-1.7.3-2.4.9-.6.5-.9 1.1-1 1.8v.5l-1.6-.6v-.3c.2-1 .6-1.9 1.4-2.6 1-.9 2.2-1.4 3.6-1.4s2.6.5 3.6 1.4c1 .9 1.5 2 1.5 3.4 0 1.3-.5 2.4-1.5 3.4-.6.6-1.4 1.2-2.2 1.8l-2.8 2c-.8.5-1.3 1.2-1.6 2h8zm14.4-3.6c0 1.5-.6 2.8-1.7 3.8s-2.5 1.6-4.1 1.6c-1.6 0-2.9-.5-4-1.6-1.1-1-1.7-2.3-1.7-3.8v-4.8c0-1.5.6-2.8 1.7-3.8s2.5-1.6 4-1.6c1.6 0 2.9.5 4.1 1.6 1.1 1 1.7 2.3 1.7 3.8v4.8zm-5.8-8.5c-1.1 0-2.1.4-2.9 1.1-.8.7-1.2 1.6-1.2 2.6v4.8c0 1 .4 1.9 1.2 2.6.8.8 1.8 1.1 2.9 1.1 1.1 0 2.1-.4 2.9-1.1.8-.7 1.2-1.6 1.2-2.6v-4.8c0-1-.4-1.9-1.2-2.6-.8-.8-1.7-1.1-2.9-1.1zm-27.2 0c-1.1 0-2.1.4-2.9 1.1-.8.7-1.2 1.6-1.2 2.6v4.8c0 1 .4 1.9 1.2 2.6.8.8 1.8 1.1 2.9 1.1 1.1 0 2.1-.4 2.9-1.1.8-.7 1.2-1.6 1.2-2.6v-4.8c0-1-.4-1.9-1.2-2.6-.9-.8-1.8-1.1-2.9-1.1zm2.8 1.1c-.8-.7-1.8-1.1-2.9-1.1-1.1 0-2.1.4-2.9 1.1-.8.7-1.2 1.6-1.2 2.6v4.8c0 1 .4 1.9 1.2 2.6.8.8 1.8 1.1 2.9 1.1 1.1 0 2.1-.4 2.9-1.1.8-.7 1.2-1.6 1.2-2.6v-4.8c0-1-.4-1.9-1.2-2.6zm0 0c-.8-.7-1.8-1.1-2.9-1.1-1.1 0-2.1.4-2.9 1.1-.8.7-1.2 1.6-1.2 2.6v4.8c0 1 .4 1.9 1.2 2.6.8.8 1.8 1.1 2.9 1.1 1.1 0 2.1-.4 2.9-1.1.8-.7 1.2-1.6 1.2-2.6v-4.8c0-1-.4-1.9-1.2-2.6z" fill="#0071bc"></path><path d="M235.9 196.5h8.1v1.6h-10l.1-.4c.3-2 1.1-3.4 2.2-4.2 1.1-.7 2-1.4 2.9-2 .8-.6 1.6-1.2 2.2-1.9.7-.7 1-1.4 1-2.2 0-.9-.3-1.6-1-2.2-.7-.6-1.4-.9-2.4-.9-.9 0-1.7.3-2.4.9-.6.5-.9 1.1-1 1.8v.5l-1.6-.6v-.3c.2-1 .6-1.9 1.4-2.6 1-.9 2.2-1.4 3.6-1.4s2.6.5 3.6 1.4c1 .9 1.5 2 1.5 3.4 0 1.3-.5 2.4-1.5 3.4-.6.6-1.4 1.2-2.2 1.8l-2.8 2c-.8.4-1.4 1.1-1.7 1.9z"></path><path d="M286.7 167H64c23.2 31.9 58.2 81.8 79.3 120 .5.9.7 1.9.5 2.9-.4 2.1-.5 6 2.4 8.9l117 117c15.2-18.8 23.5-42.3 23.6-66.5l-.1-182.3zm-3 182.2c0 22.4-7.3 44.1-20.8 62L176.7 325l-28.4-28.4c-1.9-2-1.8-4.8-1.6-6.3.3-1.7 0-3.4-.8-4.9-19.8-35.9-51.6-81.7-76-115.5h213.8v179.3z"></path><path d="M249.8 425.4c-3.5 3.2-7.2 6.1-11.1 8.8l-88.9 60.4-89-60.5c-28.1-19.1-45-50.9-45-84.9v-98.6c28.4 31.5 56 58.3 61.5 63.6 1.5 1.4 3.6 1.8 5.5 1.2 2.6-.9 10.5-3.7 26.2-8.5 4.2-1.3 8.6-2.1 13-2.1 9.2 0 13.5 3.8 13.8 4.1l114 116.5z" fill="#22b573"></path><path d="M137.8 306.5s-5-5-15.9-5c-4.7.1-9.3.8-13.8 2.3-15.7 4.8-23.5 7.5-26.3 8.6-.2.1-.5.1-.8.1-.6 0-1.2-.2-1.6-.6-6-5.7-36.5-35.4-66.6-69.3v106.6c0 35 17.3 67.7 46.3 87.4l90.6 61.6 90.6-61.5c4.9-3.3 9.5-7.1 13.7-11.2l-116.2-119zm-77 127.6c-28.1-19.1-45-50.9-45-84.9v-98.6c28.4 31.5 56 58.3 61.5 63.6 1.5 1.4 3.6 1.8 5.5 1.2 2.6-.9 10.5-3.7 26.2-8.5 4.2-1.3 8.6-2.1 13-2.1 9.2 0 13.5 3.8 13.8 4.1l114 116.7c-3.5 3.2-7.2 6.1-11.1 8.8l-88.9 60.4-89-60.7zM44.2 105.8V124h18.5v3.1H44.2v21.2H41v-45.5h21.7v3zm32.6 21.9c-.4.4-.9.5-1.4.5h-.1c-.5 0-1-.2-1.4-.5l-.2-.2c-.7-.8-.6-1.9.2-2.6.4-.4.9-.6 1.5-.5.5 0 1 .2 1.4.5l.2.2c.6.7.5 1.9-.2 2.6zm51.9-19.9c-4.1-4.7-10.1-7.4-16.3-7.4h-.4c-6.2 0-12.2 2.7-16.3 7.4a26.28 26.28 0 000 35.5c4.4 4.9 10.5 7.4 16.6 7.4 5.3 0 10.6-1.9 14.9-5.7.6-.5 1.1-1.1 1.7-1.7 8.9-10.2 8.9-25.4-.2-35.5zm3.7 17.7c0 5.5-2 11-6 15.5-7.1 7.9-19.4 8.5-27.3 1.4-.5-.4-1-.9-1.4-1.4-8-8.8-8-22.1 0-30.9 3.4-3.8 8.2-6.1 13.3-6.4h1c4.8 0 9.3 1.7 12.9 5 .5.5 1 .9 1.4 1.4 4.2 4.4 6.1 9.9 6.1 15.4zm18.9 2.2c-.4.4-.9.5-1.5.5-.5 0-1-.2-1.4-.5-.1 0-.1-.1-.2-.2-.7-.8-.6-1.9.2-2.6.4-.4.9-.6 1.5-.5.5 0 1 .2 1.5.5l.2.2c.6.7.5 1.9-.3 2.6zm54.3-24.9l-.3.5v45h-3.2v-39.8l-18.2 29.3-.2-.4-18-28.9v39.8h-3.2v-45l-.4-.5h3.7l.1.1 18 28.9 18-29zm14.7 24.9c-.4.4-.9.5-1.4.5h-.1c-.5 0-1-.2-1.4-.5l-.2-.2c-.3-.4-.5-.8-.5-1.3s.2-.9.6-1.3c.4-.4.9-.6 1.5-.5.5 0 1 .2 1.4.5l.2.2c.7.7.6 1.9-.1 2.6zm38.2-9.2c.2-3.8-1.1-7.5-3.6-10.3-.3-.4-.7-.7-1.1-1.1-2.6-2.4-6-4-9.6-4.4h-13v45.6h3.2v-15.6h8.7l10.7 15.5.1.1h4l-11.2-16.1c2.7-.7 5.1-2 7.1-4 2.9-2.4 4.5-5.9 4.7-9.7zm-24-12.7h8.3c3.3 0 6.4 1.2 8.8 3.5 4.6 4.1 5 11.3.9 15.9l-.9.9c-2.5 2.3-5.7 3.6-9 3.5h-8v-23.8zM164 184.3v5.2h7v1.6h-7v5.3h7v1.5h-8.6v-15.2h8.6v1.6zm19.3 9c.1 1.2-.4 2.3-1.2 3.2l-.3.3c-1 .9-2.3 1.4-3.5 1.4-1.3 0-2.5-.5-3.5-1.4-.8-.7-1.2-1.6-1.4-2.6v-.3l1.6-.5.1.5c.1.7.4 1.4 1 1.8 1.4 1.2 3.4 1.2 4.8 0 1.2-1.1 1.3-3 .2-4.2-.1-.1-.1-.2-.2-.2-.7-.6-1.4-1-2.2-1.3-1-.3-2-.8-2.8-1.5-.6-.6-1-1.4-1.1-2.3-.1-.9.2-1.7.8-2.4l.3-.3c1.5-1.3 3.7-1.3 5.2 0 .4.3.7.8.8 1.2l.1.3-1.5.5-.1-.3c-.1-.3-.3-.5-.5-.7-.4-.4-1-.6-1.5-.6-.6 0-1.1.2-1.5.6-.4.3-.6.8-.6 1.2 0 .5.1.9.4 1.3l.2.2c.5.4 1.1.8 1.7 1 1.2.3 2.3 1 3.3 1.8.8 1 1.3 2.1 1.4 3.3zm11.1-10.6v1.6h-3.9V198h-1.7v-13.7h-4v-1.6zm3.2 14.2c0 .3-.1.7-.4.9-.2.2-.5.3-.9.3s-.6-.1-.9-.3c-.2-.2-.4-.5-.4-.9 0-.3.1-.6.4-.8.5-.4 1.2-.4 1.7 0 .3.2.5.5.5.8zM208.6 196.5h8.1v1.6h-10l.1-.4c.3-2 1.1-3.4 2.2-4.2 1.1-.7 2-1.4 2.9-2 .8-.6 1.6-1.2 2.2-1.9.7-.7 1-1.4 1-2.2 0-.9-.3-1.6-1-2.2-.7-.6-1.4-.9-2.4-.9-.9 0-1.7.3-2.4.9-.6.5-.9 1.1-1 1.8v.5l-1.6-.6v-.3c.2-1 .6-1.9 1.4-2.6 1-.9 2.2-1.4 3.5-1.4 1.4 0 2.6.5 3.6 1.4 1 .9 1.5 2 1.5 3.4 0 1.3-.5 2.4-1.4 3.4-.6.6-1.4 1.2-2.2 1.8l-2.8 2c-.8.4-1.4 1.1-1.7 1.9zm20.8-12.2c-1.1-1-2.5-1.6-4-1.6s-2.9.5-4 1.6c-1.1 1-1.7 2.3-1.7 3.8v4.8c0 1.5.6 2.8 1.7 3.8s2.5 1.6 4 1.6 2.9-.5 4-1.6c1.1-1 1.7-2.3 1.7-3.8v-4.8c0-1.5-.6-2.7-1.7-3.8zm-4 12.4c-1.1 0-2.1-.4-2.9-1.1-.8-.7-1.2-1.6-1.2-2.6v-4.8c0-1 .4-1.9 1.2-2.6.8-.7 1.8-1.1 2.9-1.1 1.1 0 2.1.4 2.9 1.1.8.7 1.2 1.6 1.2 2.6v4.8c0 1-.4 1.9-1.2 2.6-.9.7-1.8 1.1-2.9 1.1zm31.3-12.4c-1.1-1-2.5-1.6-4.1-1.6-1.6 0-2.9.5-4 1.6-1.1 1-1.7 2.3-1.7 3.8v4.8c0 1.5.6 2.8 1.7 3.8s2.5 1.6 4 1.6c1.6 0 2.9-.5 4.1-1.6 1.1-1 1.7-2.3 1.7-3.8v-4.8c0-1.5-.6-2.7-1.7-3.8zm0 3.8v4.8c0 1-.4 1.9-1.2 2.6-.8.8-1.8 1.1-2.9 1.1-1.1 0-2.1-.4-2.9-1.1-.8-.7-1.2-1.6-1.2-2.6v-4.8c0-1 .4-1.9 1.2-2.6.8-.7 1.8-1.1 2.9-1.1 1.1 0 2.1.4 2.9 1.1.8.7 1.2 1.6 1.2 2.6z"></path></svg>