<svg xmlns="http://www.w3.org/2000/svg" viewBox="0 0 299.56 514.56"><defs><style>.cls-1,.cls-5{fill:#fff;}.cls-2{fill:#0071bc;}.cls-3{fill:#22b573;}.cls-4,.cls-6{stroke:#000;}.cls-4,.cls-5,.cls-6{stroke-miterlimit:10;}.cls-4{stroke-width:0.5px;}.cls-5{stroke:#fff;}.cls-5,.cls-6{stroke-width:0.75px;}</style></defs><title>Logo_dark_bg</title><g id="Layer_2" data-name="Layer 2"><g id="Layer_2-2" data-name="Layer 2"><path class="cls-1" d="M149.78,512.74l98.11-66.62a114.46,114.46,0,0,0,50.17-94.7V76.88H1.5V351.33A114.46,114.46,0,0,0,51.61,446Z"/><path class="cls-1" d="M149.78,514.56l-99-67.33A115.87,115.87,0,0,1,0,351.33V75.38H299.56v276a115.86,115.86,0,0,1-50.83,95.95ZM3,78.38v273a112.88,112.88,0,0,0,49.45,93.42l97.33,66.18,97.27-66.05a112.87,112.87,0,0,0,49.51-93.46v-273Z"/><path class="cls-2" d="M147.21,297.68c-2.42-2.42-2.28-5.78-2-7.57a5.88,5.88,0,0,0-.64-3.88c-20.26-36.64-53.07-83.79-77.67-117.74H285.19V349.25A104.51,104.51,0,0,1,263,413.47Z"/><path d="M283.69,170V349.25a103,103,0,0,1-20.83,61.95L176.69,325l-28.42-28.42c-1.94-1.95-1.81-4.76-1.56-6.26a7.53,7.53,0,0,0-.8-4.86c-19.83-35.85-51.63-81.73-76-115.51H283.69m3-3H64c23.2,31.94,58.19,81.8,79.3,120a4.45,4.45,0,0,1,.47,2.91c-.35,2.09-.49,6,2.4,8.88,1.83,1.83,56.55,56.54,117,117a105.63,105.63,0,0,0,23.56-66.47V167Z"/><path class="cls-3" d="M60,435.33a104.11,104.11,0,0,1-45.61-86.17V246.6c29.29,32.76,58.36,61,64,66.4a3.77,3.77,0,0,0,3.92.83c2.64-.95,10.49-3.68,26.28-8.53A45.65,45.65,0,0,1,122,303.1c10.12,0,14.82,4.48,14.86,4.53L252,425.48a102.91,102.91,0,0,1-12.44,10l-89.75,60.94Z"/><path d="M15.87,250.51c28.41,31.53,56,58.27,61.49,63.57a5.25,5.25,0,0,0,5.46,1.16c2.63-.94,10.45-3.67,26.22-8.51A44.37,44.37,0,0,1,122,304.6c9.23,0,13.48,3.79,13.81,4.09L249.82,425.42a102,102,0,0,1-11.14,8.79l-88.9,60.36-89-60.49a102.58,102.58,0,0,1-44.95-84.92V250.51m-3-7.85v106.5a105.7,105.7,0,0,0,46.26,87.41l90.65,61.63,90.59-61.51a104.83,104.83,0,0,0,13.74-11.17l-116.24-119s-5-5-15.92-5a46.92,46.92,0,0,0-13.79,2.26c-15.65,4.81-23.48,7.52-26.35,8.56a2.38,2.38,0,0,1-.78.14,2.33,2.33,0,0,1-1.59-.64c-6-5.72-36.52-35.38-66.57-69.26Z"/><polygon class="cls-4" points="41.25 148.09 43.97 148.09 43.97 126.83 62.45 126.83 62.45 124.29 43.97 124.29 43.97 105.56 62.45 105.56 62.45 103.02 41.25 103.02 41.25 148.09"/><path class="cls-4" d="M75.33,124.59a1.88,1.88,0,0,0-1.3.48,1.6,1.6,0,0,0,0,2.4,1.88,1.88,0,0,0,1.3.48,1.83,1.83,0,0,0,1.27-.48,1.6,1.6,0,0,0,0-2.4A1.83,1.83,0,0,0,75.33,124.59Z"/><path class="cls-4" d="M112.14,100.63a21.54,21.54,0,0,0-16.36,7.29,26.22,26.22,0,0,0,0,35.17,22,22,0,0,0,32.71,0,26.22,26.22,0,0,0,0-35.17A21.53,21.53,0,0,0,112.14,100.63Zm14.52,40.49a19.57,19.57,0,0,1-29.06,0,23.23,23.23,0,0,1,0-31.23,19.55,19.55,0,0,1,29.06,0,23.29,23.29,0,0,1,0,31.23Z"/><path class="cls-4" d="M149.88,124.59a1.86,1.86,0,0,0-1.29.48,1.6,1.6,0,0,0,0,2.4,2,2,0,0,0,2.57,0,1.6,1.6,0,0,0,0-2.4A1.85,1.85,0,0,0,149.88,124.59Z"/><polygon class="cls-4" points="183.91 132.32 165.7 103.02 162.58 103.02 162.7 103.22 162.7 148.09 165.43 148.09 165.43 107.61 183.91 137.31 202.35 107.61 202.35 148.09 205.08 148.09 205.08 103.22 205.2 103.02 202.08 103.02 183.91 132.32"/><path class="cls-4" d="M218.84,124.59a1.88,1.88,0,0,0-1.3.48,1.6,1.6,0,0,0,0,2.4,1.88,1.88,0,0,0,1.3.48,1.84,1.84,0,0,0,1.27-.48,1.6,1.6,0,0,0,0-2.4A1.84,1.84,0,0,0,218.84,124.59Z"/><path class="cls-4" d="M253.68,128.15a14,14,0,0,0,0-20.82,16.58,16.58,0,0,0-9.42-4.31H231.54v45.07h2.72V132.46h8.24c.28,0,.56,0,.82,0l10.81,15.66h3.36l-11.17-16A15.73,15.73,0,0,0,253.68,128.15ZM242.5,129.9h-8.24V105.59h8.24a13.07,13.07,0,0,1,9.22,3.55,11.54,11.54,0,0,1,0,17.19A13,13,0,0,1,242.5,129.9Z"/><polygon class="cls-5" points="84.44 10.29 76.7 10.29 76.7 2.44 84.44 2.44 84.44 1.38 75.56 1.38 75.56 20.27 76.7 20.27 76.7 11.35 84.44 11.35 84.44 10.29"/><path class="cls-5" d="M100.61,20.27l-4.69-6.72A6.64,6.64,0,0,0,99,11.91,5.77,5.77,0,0,0,101,7.54,5.77,5.77,0,0,0,99,3.18a6.85,6.85,0,0,0-4-1.8H89.73V20.27h1.14V13.71h3.8l4.53,6.57Zm-6.29-7.63H90.87V2.45h3.45a5.5,5.5,0,0,1,3.87,1.49,4.73,4.73,0,0,1,1.61,3.6,4.77,4.77,0,0,1-1.61,3.61A5.5,5.5,0,0,1,94.32,12.64Z"/><rect class="cls-5" x="105.6" y="1.38" width="1.14" height="18.89"/><polygon class="cls-5" points="122.76 19.2 113.74 19.2 113.74 11.35 122.76 11.35 122.76 10.29 113.74 10.29 113.74 2.44 122.76 2.44 122.76 1.38 112.6 1.38 112.6 20.27 122.76 20.27 122.76 19.2"/><polygon class="cls-5" points="140.88 20.27 140.88 1.38 139.74 1.38 139.74 18.18 129.3 1.38 128.04 1.38 128.04 20.27 129.19 20.27 129.19 3.3 139.74 20.27 140.88 20.27"/><path class="cls-5" d="M155.48,17.67a9,9,0,0,0,3.05-6.85A9.05,9.05,0,0,0,155.48,4q-2.76-2.57-7.77-2.57h-.09v0h-1.14V20.27h1.14v0h.09Q152.72,20.24,155.48,17.67ZM147.62,2.49h.09q4.51,0,6.95,2.25a8,8,0,0,1,2.7,6.08,8,8,0,0,1-2.7,6.08q-2.43,2.27-6.95,2.27h-.09Z"/><path class="cls-5" d="M168.32,8.66a8.53,8.53,0,0,1-2.39-1.45A2.74,2.74,0,0,1,165,5.13a2.71,2.71,0,0,1,.92-2.08,3.2,3.2,0,0,1,2.24-.86A3.17,3.17,0,0,1,170.4,3a2.87,2.87,0,0,1,.75,1.06l1-.37a3.35,3.35,0,0,0-1-1.41,4.32,4.32,0,0,0-3-1.17,4.28,4.28,0,0,0-3,1.18,3.68,3.68,0,0,0-1.26,2.8A3.72,3.72,0,0,0,165.12,8a8.79,8.79,0,0,0,3.43,1.85,9.15,9.15,0,0,1,3.08,1.86,4.32,4.32,0,0,1,0,6.44,5.17,5.17,0,0,1-6.92,0,4.23,4.23,0,0,1-1.4-2.68l-1.08.36a5.25,5.25,0,0,0,1.68,3.05,6.33,6.33,0,0,0,8.51,0,5.3,5.3,0,0,0,0-7.91A10.32,10.32,0,0,0,168.32,8.66Z"/><path class="cls-5" d="M201.45,21.22a9,9,0,0,0,6.85-3,10.45,10.45,0,0,0,2.84-7.37,10.44,10.44,0,0,0-2.84-7.37,9.23,9.23,0,0,0-13.71,0,10.44,10.44,0,0,0-2.84,7.37,10.45,10.45,0,0,0,2.84,7.37A9.06,9.06,0,0,0,201.45,21.22Zm-6.09-17a8.19,8.19,0,0,1,12.17,0,9.29,9.29,0,0,1,2.53,6.55,9.26,9.26,0,0,1-2.53,6.54,8.19,8.19,0,0,1-12.17,0,9.22,9.22,0,0,1-2.53-6.54A9.24,9.24,0,0,1,195.36,4.25Z"/><polygon class="cls-5" points="216.26 11.35 224 11.35 224 10.29 216.26 10.29 216.26 2.44 224 2.44 224 1.38 215.12 1.38 215.12 20.27 216.26 20.27 216.26 11.35"/><polygon class="cls-5" points="12.27 47.66 4.64 35.38 3.33 35.38 3.38 35.46 3.38 54.27 4.53 54.27 4.53 37.3 12.27 49.74 20 37.3 20 54.27 21.14 54.27 21.14 35.46 21.2 35.38 19.89 35.38 12.27 47.66"/><polygon class="cls-5" points="26.8 54.27 36.95 54.27 36.95 53.2 27.94 53.2 27.94 45.35 36.95 45.35 36.95 44.29 27.94 44.29 27.94 36.44 36.95 36.44 36.95 35.38 26.8 35.38 26.8 54.27"/><path class="cls-5" d="M53.46,41.54a5.77,5.77,0,0,0-1.94-4.36,6.85,6.85,0,0,0-4-1.8H42.24V54.27h1.14V47.71h3.8l4.53,6.57h1.41l-4.69-6.72a6.64,6.64,0,0,0,3.09-1.64A5.77,5.77,0,0,0,53.46,41.54Zm-6.63,5.1H43.38V36.45h3.45a5.5,5.5,0,0,1,3.87,1.49,4.84,4.84,0,0,1,0,7.21A5.5,5.5,0,0,1,46.83,46.64Z"/><path class="cls-5" d="M67.94,36.24a9.33,9.33,0,0,1,6.13,2.16l.86-.73A11,11,0,0,0,60.58,38a9.2,9.2,0,0,0,0,13.67A11,11,0,0,0,74.93,52l-.86-.72a9.75,9.75,0,0,1-12.66-.36,8.18,8.18,0,0,1,0-12.15A9.28,9.28,0,0,1,67.94,36.24Z"/><polygon class="cls-5" points="86.19 45.45 79.94 35.38 78.63 35.38 85.61 46.63 85.61 54.27 86.76 54.27 86.76 46.63 93.75 35.38 92.44 35.38 86.19 45.45"/><polygon class="cls-5" points="107.73 44.74 99.23 44.74 99.23 35.38 98.08 35.38 98.08 54.27 99.23 54.27 99.23 45.8 107.73 45.8 107.73 54.27 108.88 54.27 108.88 35.38 107.73 35.38 107.73 44.74"/><path class="cls-5" d="M126.59,48.27a4.71,4.71,0,0,1-1.6,3.59,5.76,5.76,0,0,1-7.75,0,4.72,4.72,0,0,1-1.61-3.59V35.38h-1.15V48.27a5.73,5.73,0,0,0,1.94,4.35,7,7,0,0,0,9.38,0A6,6,0,0,0,127.74,49V35.38h-1.15Z"/><path class="cls-5" d="M144.57,41.54a5.77,5.77,0,0,0-1.94-4.36,6.88,6.88,0,0,0-3.95-1.8h-5.33V54.27h1.14V47.71h3.8l4.53,6.57h1.41l-4.69-6.72a6.64,6.64,0,0,0,3.09-1.64A5.77,5.77,0,0,0,144.57,41.54Zm-6.63,5.1h-3.45V36.45h3.45a5.5,5.5,0,0,1,3.87,1.49,4.86,4.86,0,0,1,0,7.21A5.5,5.5,0,0,1,137.94,46.64Z"/><path class="cls-5" d="M153.79,42.66a8.53,8.53,0,0,1-2.39-1.45,2.77,2.77,0,0,1-.92-2.08,2.74,2.74,0,0,1,.92-2.08,3.2,3.2,0,0,1,2.24-.86,3.17,3.17,0,0,1,2.23.85,2.87,2.87,0,0,1,.75,1.06l1-.37a3.42,3.42,0,0,0-1-1.41,4.36,4.36,0,0,0-3.05-1.17,4.28,4.28,0,0,0-3,1.18,3.77,3.77,0,0,0,0,5.63A8.79,8.79,0,0,0,154,43.81a9.15,9.15,0,0,1,3.08,1.86,4.32,4.32,0,0,1,0,6.44,5.15,5.15,0,0,1-6.91,0,4.19,4.19,0,0,1-1.41-2.68l-1.08.36a5.21,5.21,0,0,0,1.69,3.05,6.31,6.31,0,0,0,8.5,0,5.3,5.3,0,0,0,0-7.91A10.25,10.25,0,0,0,153.79,42.66Z"/><polygon class="cls-5" points="162.72 36.44 167.86 36.44 167.86 54.27 169 54.27 169 36.44 174.15 36.44 174.15 35.38 162.72 35.38 162.72 36.44"/><path class="cls-5" d="M201.63,41.54a5.74,5.74,0,0,0-1.95-4.36,6.85,6.85,0,0,0-3.94-1.8H190.4V54.27h1.15V47.71h3.79l4.53,6.57h1.41l-4.68-6.72a6.56,6.56,0,0,0,3.08-1.64A5.75,5.75,0,0,0,201.63,41.54ZM195,46.64h-3.45V36.45H195a5.48,5.48,0,0,1,3.86,1.49,4.84,4.84,0,0,1,0,7.21A5.48,5.48,0,0,1,195,46.64Z"/><path class="cls-5" d="M216,34.38a9,9,0,0,0-6.86,3,11,11,0,0,0,0,14.74,9.23,9.23,0,0,0,13.71,0,11,11,0,0,0,0-14.74A9,9,0,0,0,216,34.38Zm6.09,17a8.2,8.2,0,0,1-12.18,0,9.76,9.76,0,0,1,0-13.09,8.2,8.2,0,0,1,12.18,0,9.76,9.76,0,0,1,0,13.09Z"/><path class="cls-5" d="M247,49.8a3.25,3.25,0,0,1-1.15,2.52,3.88,3.88,0,0,1-2.72,1,3.84,3.84,0,0,1-3.44-1.94v-16h-1.14v16a4,4,0,0,1-.73.91,4.08,4.08,0,0,1-5.44,0,3.28,3.28,0,0,1-1.14-2.52V35.38h-1.15V49.9a4.28,4.28,0,0,0,1.48,3.16,5,5,0,0,0,3.54,1.37,5,5,0,0,0,3.54-1.36,4.23,4.23,0,0,0,.47-.48,3.53,3.53,0,0,0,.47.48,5.3,5.3,0,0,0,7.1,0,4.33,4.33,0,0,0,1.46-3.16V35.38H247Z"/><rect class="cls-5" x="253.71" y="35.38" width="1.14" height="18.89"/><polygon class="cls-5" points="272.41 52.18 261.97 35.38 260.71 35.38 260.71 54.27 261.86 54.27 261.86 37.3 272.41 54.27 273.55 54.27 273.55 35.38 272.41 35.38 272.41 52.18"/><path class="cls-5" d="M295,51.54a9.4,9.4,0,0,1-5.78,1.88,9.21,9.21,0,0,1-6.52-2.52,8.16,8.16,0,0,1,0-12.15,9.75,9.75,0,0,1,12.65-.35l.87-.73a11,11,0,0,0-14.36.32,9.2,9.2,0,0,0,0,13.67,10.4,10.4,0,0,0,7.36,2.83,10.09,10.09,0,0,0,6.92-2.57V45.78H295Z"/><path class="cls-6" d="M165.42,183.1v.82h-6.94v6h6.94v.82h-6.94v6h6.94v.81H157.6V183.1Z"/><path class="cls-6" d="M173.37,189.59a6.81,6.81,0,0,1-2.64-1.42,2.91,2.91,0,0,1,0-4.34,3.51,3.51,0,0,1,4.69,0,2.56,2.56,0,0,1,.74,1.08l-.79.29a2.25,2.25,0,0,0-.58-.82,2.45,2.45,0,0,0-1.72-.65,2.41,2.41,0,0,0-1.71.66,2.14,2.14,0,0,0,0,3.2,6.46,6.46,0,0,0,1.83,1.12,7.92,7.92,0,0,1,3.16,1.75,4.1,4.1,0,0,1,0,6.08,4.86,4.86,0,0,1-6.55,0,4.11,4.11,0,0,1-1.3-2.35l.83-.28a3.33,3.33,0,0,0,1.09,2.06,3.95,3.95,0,0,0,5.32,0,3.33,3.33,0,0,0,0-4.95A7,7,0,0,0,173.37,189.59Z"/><path class="cls-6" d="M184.9,183.92v13.71H184V183.92h-4v-.82h8.79v.82Z"/><path class="cls-6" d="M191.74,196.37a.76.76,0,0,1,.26.57.75.75,0,0,1-.26.58.92.92,0,0,1-1.24,0,.72.72,0,0,1-.26-.58.73.73,0,0,1,.26-.57,1,1,0,0,1,1.24,0Z"/><path class="cls-6" d="M205.55,193.7l2.86-2a17.15,17.15,0,0,0,2.31-2,3.51,3.51,0,0,0,1.06-2.52,3.27,3.27,0,0,0-1.09-2.46,4,4,0,0,0-5.29,0,3.3,3.3,0,0,0-1.07,2.08l-.89-.3a4.14,4.14,0,0,1,1.31-2.38,4.88,4.88,0,0,1,6.58,0,4.05,4.05,0,0,1,1.37,3.07,4.29,4.29,0,0,1-1.34,3.13,15.9,15.9,0,0,1-2.15,1.78l-2.79,1.94a4.47,4.47,0,0,0-1.93,2.73h8.21v.81h-9.21A5.61,5.61,0,0,1,205.55,193.7Z"/><path class="cls-6" d="M227,192.9a4.68,4.68,0,0,1-1.57,3.53,5.65,5.65,0,0,1-7.58,0,4.65,4.65,0,0,1-1.58-3.53v-4.81a4.65,4.65,0,0,1,1.58-3.53,5.65,5.65,0,0,1,7.58,0,4.68,4.68,0,0,1,1.57,3.53Zm-.93-4.81a3.8,3.8,0,0,0-1.3-2.91,4.67,4.67,0,0,0-6.27,0,3.8,3.8,0,0,0-1.3,2.91v4.81a3.8,3.8,0,0,0,1.3,2.91,4.67,4.67,0,0,0,6.27,0,3.8,3.8,0,0,0,1.3-2.91Z"/><path class="cls-6" d="M236.14,183.1v14.53h-.88V184.54h-.93l1.21-1.44Z"/><path class="cls-6" d="M252.28,191.89a5.67,5.67,0,0,1-7.27-.27,4.75,4.75,0,0,1,0-7.06,5.65,5.65,0,0,1,7.58,0,4.66,4.66,0,0,1,1.57,3.37h.06a8.84,8.84,0,0,1-1.66,5.24,52.57,52.57,0,0,1-3.87,4.44l-.26.28h-1.21l.41-.46a54.54,54.54,0,0,0,4.07-4.65A7.55,7.55,0,0,0,252.28,191.89Zm-.35-.89a3.91,3.91,0,0,0,0-5.82,4.67,4.67,0,0,0-6.27,0,3.93,3.93,0,0,0,0,5.82,4.67,4.67,0,0,0,6.27,0Z"/></g></g></svg>